<svg width="25" height="26" viewBox="0 0 25 26" fill="none" xmlns="http://www.w3.org/2000/svg">
<g clip-path="url(#clip0)">
<path d="M24.6673 10.7628C24.6673 11.1175 24.4241 11.4384 24.0638 11.5224C23.644 11.6203 23.2242 11.3593 23.1263 10.9394C23.1199 10.9119 23.1132 10.8846 23.1062 10.8573C23.0002 10.4392 23.2526 10.0146 23.6704 9.90834C24.1637 9.78294 24.6673 10.1503 24.6673 10.7628V10.7628Z" fill="#F7941E"/>
<path d="M6.01072 24.1625C0.11183 20.5769 -1.76095 12.9012 1.82512 7.00145C3.88516 3.6123 7.33436 1.50976 11.0788 1.07923C16.4958 0.455787 21.4188 3.39762 23.6663 7.89188C23.8591 8.27747 23.7029 8.74644 23.3173 8.93927C22.9317 9.13209 22.4627 8.97586 22.2699 8.59022C18.4255 0.902904 7.60827 0.493161 3.15934 7.8124C0.0291302 12.962 1.67211 19.6981 6.82172 22.8284C13.9426 27.1568 23.4274 22.2619 23.4274 13.2894C23.4274 12.8648 23.7677 12.5168 24.194 12.5091C24.6251 12.5014 24.9808 12.8446 24.9886 13.2756C25.1641 23.0881 14.4125 29.2695 6.01072 24.1625V24.1625Z" fill="#F7941E"/>
<path d="M14.6842 8.64348C14.3793 8.94832 14.3793 9.44262 14.6842 9.74746L14.9129 9.97614L11.7233 9.97614C8.54505 9.97614 7.55279 11.8876 7.5121 11.969C7.53064 11.9783 7.43359 12.0849 7.43359 12.3222C7.43359 13.1608 8.58398 13.4071 8.92678 12.6401C9.06379 12.4328 9.76891 11.5375 11.7233 11.5375L14.9129 11.5375L14.6842 11.7662C14.3793 12.071 14.3793 12.5653 14.6842 12.8702C14.989 13.1751 15.4833 13.1751 15.7882 12.8702L17.3493 11.3091C17.5984 11.0602 17.6518 10.6662 17.4672 10.3574C17.3945 10.2357 17.4768 10.3323 15.7881 8.64358C15.4833 8.33864 14.989 8.33864 14.6842 8.64348V8.64348Z" fill="#F7941E"/>
<path d="M16.1002 14.3128C16.0937 14.3095 16.0929 14.3129 16.1021 14.2962C16.0762 14.3429 15.4433 15.4399 13.2802 15.4399L10.0906 15.4399C10.3326 15.198 10.548 15.0334 10.548 14.6593C10.548 13.97 9.70846 13.6141 9.21533 14.1073C7.50302 15.8196 7.63822 15.682 7.60226 15.7258C7.37309 16.0048 7.36802 16.4027 7.58177 16.6879C7.63534 16.7592 7.4775 16.596 9.21533 18.3338C9.52017 18.6387 10.0145 18.6387 10.3193 18.3338C10.6242 18.029 10.6242 17.5347 10.3193 17.2298L10.0906 17.0012H13.2802C16.0233 17.0012 17.1379 15.5774 17.4179 15.1352C17.8058 14.6257 17.445 13.8826 16.7971 13.8826C16.4921 13.8827 16.2287 14.0579 16.1002 14.3128V14.3128Z" fill="#F7941E"/>
</g>
<defs>
<clipPath id="clip0">
<rect width="25" height="25" fill="white" transform="translate(0 25.9961) rotate(-90)"/>
</clipPath>
</defs>
</svg>
