<svg width="25" height="25" viewBox="0 0 25 25" fill="none" xmlns="http://www.w3.org/2000/svg">
<g clip-path="url(#clip0)">
<path d="M13.0666 9.93748V11.1944C13.0666 11.5936 13.1466 11.9286 13.3037 12.1895C13.5208 12.5496 13.8771 12.756 14.2816 12.756C14.678 12.756 15.0718 12.5629 15.4523 12.1826L19.6039 8.03108C20.5152 7.11956 20.5152 5.63641 19.6037 4.72488L15.4523 0.573349C15.0718 0.192833 14.678 0 14.2816 0C13.677 0 13.0666 0.482941 13.0666 1.56155V2.70309C7.17254 3.05119 2.29316 7.57446 1.56799 13.4966C1.52736 13.8273 1.71543 14.1439 2.02537 14.2666C2.11311 14.3013 2.20447 14.3181 2.29469 14.3181C2.52319 14.3181 2.74482 14.2111 2.88597 14.0182C4.83108 11.3605 7.95418 9.77383 11.2402 9.77383C11.8492 9.77383 12.4612 9.82876 13.0666 9.93748V9.93748ZM3.68572 11.0443C5.27988 6.97289 9.24755 4.14639 13.7991 4.14639C14.2036 4.14639 14.5315 3.81851 14.5315 3.41396V1.72424L18.568 5.76057C18.9083 6.10104 18.9083 6.65493 18.568 6.99539L14.5315 11.0317V9.34181C14.5315 9.0023 14.2982 8.70724 13.9677 8.62904C13.0701 8.41675 12.1523 8.30898 11.2402 8.30898C9.35188 8.30898 7.47352 8.76598 5.80803 9.63078C5.05329 10.0225 4.3407 10.4982 3.68572 11.0443V11.0443Z" fill="#F7941E"/>
<path d="M20.301 10.735C19.9911 10.6124 19.6373 10.7146 19.4404 10.9835C17.4953 13.641 14.3724 15.2278 11.0862 15.2278C10.4774 15.2278 9.86534 15.1728 9.25976 15.0641V13.8072C9.25976 12.7286 8.6496 12.2456 8.04478 12.2456C7.64843 12.2456 7.25456 12.4386 6.87424 12.8192L2.7227 16.9705C1.81118 17.882 1.81118 19.3652 2.7227 20.2769L6.87424 24.4282C7.25456 24.8088 7.64843 25.0016 8.04478 25.0016C8.64941 25.0016 9.25976 24.5187 9.25976 23.44V22.2985C15.154 21.9504 20.0332 17.4271 20.7584 11.5052C20.799 11.1743 20.611 10.8576 20.301 10.735V10.735ZM8.52734 20.8552C8.12279 20.8552 7.79492 21.1831 7.79492 21.5876V23.2773L3.75858 19.2412C3.41812 18.9006 3.41812 18.3467 3.75839 18.0064L7.79492 13.9699V15.6598C7.79492 15.9995 8.02838 16.2945 8.35892 16.3727C9.25671 16.5848 10.1743 16.6926 11.0862 16.6926C12.9747 16.6926 14.8531 16.2356 16.5184 15.371C17.2731 14.979 17.9857 14.5035 18.6407 13.9575C17.0465 18.0287 13.0788 20.8552 8.52734 20.8552V20.8552Z" fill="#F7941E"/>
</g>
<defs>
<clipPath id="clip0">
<rect width="25" height="25" fill="white"/>
</clipPath>
</defs>
</svg>
