<svg width="24" height="24" viewBox="0 0 24 24" fill="none" xmlns="http://www.w3.org/2000/svg">
<path d="M13.1545 20.7832H22.6467" stroke="#FD9400" stroke-width="0.75"/>
<path d="M12.8075 13.8418V21.8246C12.6223 22.9352 13.502 23.0586 13.965 22.9815H22.0681C22.9015 22.9815 23.0327 22.2102 22.9941 21.8246V13.8418C22.9941 13.0088 22.3768 12.8006 22.0681 12.8006H13.965C12.9464 12.708 12.7689 13.4562 12.8075 13.8418Z" stroke="#FD9400" stroke-width="0.75"/>
<path d="M15.354 15.3457V11.328C15.354 8.72835 19.7683 7.42856 20.4474 11.328V15.3457" stroke="#FD9400" stroke-width="0.75"/>
<path d="M19.3188 14.6516C18.9716 16.5027 21.8655 16.7341 21.634 14.6516" stroke="#FD9400" stroke-width="0.75"/>
<path d="M14.2255 14.6516C13.8783 16.5027 16.7722 16.7341 16.5407 14.6516" stroke="#FD9400" stroke-width="0.75"/>
<path d="M17.5534 3.08252C22.531 3.08252 23.9201 8.28866 22.2994 10.8339C22.2994 6.66897 19.1354 5.62774 17.5534 5.62774V7.47882L13.9648 4.47082L17.5534 1.23145V3.08252Z" stroke="#FD9400" stroke-width="0.75"/>
<path d="M6.62121 21.0146C1.6436 21.0146 0.254504 15.8085 1.87512 13.2633C1.87512 17.4282 5.03918 18.4694 6.62121 18.4694V16.6183L10.2097 19.6263L6.62121 22.8657V21.0146Z" stroke="#FD9400" stroke-width="0.75"/>
<path d="M4.93594 9.09864C4.78159 10.2941 5.05158 12.8008 8.17717 13.4949C9.33464 13.6106 11.1174 13.4487 12.2287 11.8752C12.5759 11.3835 13.2705 10.0242 12.5759 7.94172C12.3058 7.13188 10.9553 5.53533 9.10319 5.62788" stroke="#FD9400" stroke-width="0.75"/>
<path d="M10.3764 8.86708V8.17293C10.415 7.86441 10.1912 7.29367 8.98728 7.47877C8.52397 7.47877 7.82942 7.36303 7.71366 8.17293C7.71366 8.17293 7.5979 8.86708 7.71366 9.56124C7.73295 9.6769 8.18188 9.71514 8.75571 9.6769C10.1448 9.7926 10.3764 9.56121 10.3764 10.7181C10.3764 11.2966 10.6078 11.7594 8.98728 11.7594C8.29263 11.7594 7.48236 11.9908 7.48242 10.7181V10.3711" stroke="#FD9400" stroke-width="0.75"/>
<path d="M8.98706 6.78467V12.5693" stroke="#FD9400" stroke-width="0.75"/>
<path d="M8.9596 5.16492C8.9596 7.25783 7.26193 8.95483 5.1673 8.95483C3.07267 8.95483 1.375 7.25783 1.375 5.16492C1.375 3.07201 3.07267 1.375 5.1673 1.375C7.26193 1.375 8.9596 3.07201 8.9596 5.16492Z" stroke="#FD9400" stroke-width="0.75"/>
<path d="M6.67252 4.47084V3.77669C6.71111 3.46817 6.48731 2.89743 5.28342 3.08253C4.82011 3.08253 4.12556 2.96679 4.0098 3.77669C4.0098 3.77669 3.89404 4.47084 4.0098 5.165C4.02909 5.28066 4.47803 5.3189 5.05185 5.28066C6.44091 5.39636 6.67252 5.16497 6.67252 6.32189C6.67252 6.90035 6.90394 7.36312 5.28342 7.36312C4.58877 7.36312 3.7785 7.59453 3.77856 6.32189V5.97482" stroke="#FD9400" stroke-width="0.75"/>
<path d="M5.2832 2.38843V8.17303" stroke="#FD9400" stroke-width="0.75"/>
</svg>
