<svg width="25" height="25" viewBox="0 0 25 25" fill="none" xmlns="http://www.w3.org/2000/svg">
<g clip-path="url(#clip0)">
<path d="M9.93919 16.8457L13.3918 6.48767C13.5197 6.10393 13.3123 5.68914 12.9286 5.56121C12.5449 5.43333 12.1301 5.6407 12.0021 6.02444L8.54949 16.3825C8.42161 16.7662 8.62898 17.181 9.01272 17.309C9.08953 17.3345 9.16765 17.3467 9.24441 17.3467C9.55105 17.3467 9.83684 17.1527 9.93919 16.8457V16.8457Z" fill="#F7941E"/>
<path d="M15.1152 13.6328C16.3268 13.6328 17.3125 12.6471 17.3125 11.4355C17.3125 10.224 16.3268 9.23828 15.1152 9.23828C13.9037 9.23828 12.918 10.224 12.918 11.4355C12.918 12.6471 13.9037 13.6328 15.1152 13.6328ZM15.1152 10.7031C15.5191 10.7031 15.8477 11.0317 15.8477 11.4355C15.8477 11.8394 15.5191 12.168 15.1152 12.168C14.7114 12.168 14.3828 11.8394 14.3828 11.4355C14.3828 11.0317 14.7114 10.7031 15.1152 10.7031Z" fill="#F7941E"/>
<path d="M6.82617 9.23828C5.6146 9.23828 4.62891 10.224 4.62891 11.4355C4.62891 12.6471 5.6146 13.6328 6.82617 13.6328C8.03775 13.6328 9.02344 12.6471 9.02344 11.4355C9.02344 10.224 8.03779 9.23828 6.82617 9.23828V9.23828ZM6.82617 12.168C6.42232 12.168 6.09375 11.8394 6.09375 11.4355C6.09375 11.0317 6.42232 10.7031 6.82617 10.7031C7.23003 10.7031 7.55859 11.0317 7.55859 11.4355C7.55859 11.8394 7.23008 12.168 6.82617 12.168Z" fill="#F7941E"/>
<path d="M24.8535 9.08202L22.2995 5.6766L22.3991 4.97919C22.4317 4.75096 22.355 4.52069 22.1919 4.3577L20.6382 2.80399L22.1919 1.25028C22.4779 0.964294 22.4779 0.500525 22.1919 0.21449C21.9059 -0.0714966 21.4421 -0.0714966 21.1561 0.21449L19.6024 1.7682L18.0487 0.21449C17.8857 0.0514526 17.6555 -0.0250122 17.4272 0.007312L10.1766 1.0431C10.0197 1.06552 9.87435 1.13822 9.76229 1.25028L0.785339 10.2272C-0.26178 11.2743 -0.26178 12.9781 0.785339 14.0252L8.38119 21.6211C8.53656 21.7765 8.70668 21.9082 8.88671 22.0175V22.3144C8.88671 23.7953 10.0914 25 11.5723 25H22.3144C23.7953 25 25 23.7953 25 22.3144V9.52147C25 9.36303 24.9486 9.20878 24.8535 9.08202V9.08202ZM1.82113 12.9894C1.34515 12.5134 1.34515 11.739 1.82113 11.263L10.6254 2.45873L17.2718 1.50927L18.5666 2.80404L17.5308 3.83983L17.0129 3.32191C16.7269 3.03593 16.2631 3.03593 15.9771 3.32191C15.6911 3.6079 15.6911 4.07167 15.9771 4.3577L18.0487 6.42933C18.1917 6.57235 18.3792 6.64388 18.5666 6.64388C18.754 6.64388 18.9415 6.57235 19.0845 6.42933C19.3705 6.14335 19.3705 5.67958 19.0845 5.39354L18.5665 4.87562L19.6023 3.83983L20.8971 5.13461L19.9476 11.781L11.1433 20.5853C10.9128 20.8159 10.6062 20.9428 10.2802 20.9428C9.95409 20.9428 9.64755 20.8158 9.41698 20.5853L1.82113 12.9894ZM23.5351 22.3144C23.5351 22.9875 22.9875 23.5351 22.3144 23.5351H11.5723C10.9295 23.5351 10.4016 23.0357 10.3552 22.4046C11.0177 22.3862 11.6746 22.1256 12.1791 21.6211L21.156 12.6441C21.2681 12.5321 21.3408 12.3867 21.3632 12.2298L22.0064 7.72738L23.5351 9.76561V22.3144Z" fill="#F7941E"/>
</g>
<defs>
<clipPath id="clip0">
<rect width="25" height="25" fill="white"/>
</clipPath>
</defs>
</svg>
