<svg width="25" height="25" viewBox="0 0 25 25" fill="none" xmlns="http://www.w3.org/2000/svg">
<path d="M19.7832 16.2649C20.1877 16.2649 20.5156 15.9354 20.5156 15.5289C20.5156 15.1225 20.1877 14.793 19.7832 14.793C19.3787 14.793 19.0508 15.1225 19.0508 15.5289C19.0508 15.9354 19.3787 16.2649 19.7832 16.2649Z" fill="#F7941E"/>
<path d="M22.2036 11.9761V8.16965C22.2036 7.76319 21.9134 7.43368 21.5554 7.43368H21.0338C20.8599 6.89122 19.4971 2.64001 19.287 1.98446C19.1647 1.60303 18.7935 1.40599 18.4573 1.54411L11.2873 4.4898H3.31958C2.24734 4.4898 1.375 5.48027 1.375 6.69771V21.4171C1.375 22.6345 2.24734 23.625 3.31958 23.625H21.5554C21.9134 23.625 22.2036 23.2955 22.2036 22.889V19.0826C22.9581 18.7788 23.5 17.9607 23.5 17.0013V14.0574C23.5 13.0979 22.9581 12.2799 22.2036 11.9761ZM15.9115 4.15533C16.2405 4.76957 16.7213 5.26051 17.3082 5.57123C17.8713 5.8694 18.5038 5.98779 19.1549 5.87622L19.6542 7.43363H7.93182L15.9115 4.15533ZM18.6961 4.44496C18.4095 4.44824 18.1235 4.37887 17.8561 4.23722C17.5874 4.09503 17.356 3.88969 17.1737 3.63681L18.29 3.17816L18.6961 4.44496ZM3.31958 5.96174H7.70452L4.1217 7.43368H3.31958C2.96217 7.43368 2.67139 7.10352 2.67139 6.69771C2.67139 6.29189 2.96217 5.96174 3.31958 5.96174V5.96174ZM3.31958 22.1531C2.96217 22.1531 2.67139 21.8229 2.67139 21.4171V8.77903C2.87427 8.86072 3.09237 8.90562 3.31958 8.90562H20.9072V11.8495H17.6663C15.8792 11.8495 14.4253 13.5003 14.4253 15.5293C14.4253 17.5584 15.8792 19.2092 17.6663 19.2092H20.9072V22.1531H3.31958ZM22.2036 17.0013C22.2036 17.4071 21.9128 17.7372 21.5554 17.7372H17.6663C16.594 17.7372 15.7217 16.7468 15.7217 15.5293C15.7217 14.3119 16.594 13.3214 17.6663 13.3214H21.5554C21.9128 13.3214 22.2036 13.6516 22.2036 14.0574V17.0013Z" fill="#F7941E"/>
<path d="M11.0066 15.3637C10.6016 14.9942 10.0588 14.7907 9.47856 14.7907C9.1021 14.7907 8.74614 14.3853 8.74614 13.9565C8.74614 13.6805 8.93769 13.4206 9.23413 13.2944C9.41836 13.216 9.90415 13.0893 10.4338 13.6049C10.7243 13.8877 11.188 13.8803 11.4694 13.5884C11.7509 13.2966 11.7436 12.8306 11.4531 12.5478C11.085 12.1895 10.657 11.9474 10.211 11.8306V11.111C10.211 10.7045 9.8831 10.375 9.47861 10.375C9.07412 10.375 8.74619 10.7045 8.74619 11.111V11.9056C8.71831 11.9163 8.69053 11.9274 8.66289 11.9392C7.82358 12.2962 7.2813 13.0881 7.2813 13.9564C7.2813 15.2065 8.2875 16.2626 9.47856 16.2626C9.83135 16.2626 10.211 16.4622 10.211 16.9003C10.211 17.2137 10.0229 17.493 9.74311 17.5954C9.38413 17.7267 8.95825 17.5388 8.57456 17.0798C8.3144 16.7686 7.85239 16.7281 7.54263 16.9895C7.23291 17.251 7.19267 17.7152 7.45283 18.0264C7.83721 18.4863 8.28139 18.8057 8.74609 18.9735V19.9425C8.74609 20.3489 9.07402 20.6784 9.47851 20.6784C9.88301 20.6784 10.2109 20.3489 10.2109 19.9425V18.99C10.2221 18.9861 10.2333 18.9826 10.2444 18.9785C11.1006 18.6652 11.6758 17.83 11.6758 16.9003C11.6758 16.303 11.4382 15.7573 11.0066 15.3637V15.3637Z" fill="#F7941E"/>
</svg>
