<svg width="54" height="55" viewBox="0 0 54 55" fill="none" xmlns="http://www.w3.org/2000/svg">
<g filter="url(#filter0_d)">
<path d="M38.4805 6.7162L38.1845 6.58585C36.9606 3.2509 33.537 1.0015 29.6817 0.999573H12.6658L14.7073 6.58585C12.3341 7.66774 11.1255 10.1247 11.8185 12.4607L13.6865 17.7584H15.728V13.1032C15.728 13.1032 21.8526 13.1032 24.9148 12.1721L34.1016 9.37898L38.1846 15.8963V17.7584H40.2261L41.4306 12.2559C41.9246 10.0139 40.718 7.74778 38.4805 6.7162Z" fill="#A15D30"/>
<path d="M14.7075 6.586C12.3393 7.67068 11.139 10.1295 11.8392 12.4609L13.6867 17.7585H15.7282V13.1033C15.7282 13.1033 18.127 13.1033 20.6686 12.8798C18.0576 11.3501 15.9876 9.16402 14.7075 6.586Z" fill="#8F4F24"/>
<path d="M43.0739 39.4608L35.9797 38.5949L35.4898 39.6284C33.4636 43.927 28.0006 45.9139 23.2878 44.0657C21.1034 43.2092 19.363 41.6209 18.423 39.6284L17.933 38.5949L10.8388 39.4608C7.79798 39.8295 5.52487 42.1935 5.52075 44.9912V54.9999H48.3922V44.9912C48.388 42.1935 46.1148 39.8295 43.0739 39.4608Z" fill="#FECB66"/>
<path d="M26.9564 44.7586C30.6698 44.7604 34.0271 42.742 35.4899 39.6285L35.9798 38.595L34.8569 38.4553C33.8342 38.3333 33.0716 37.5345 33.0808 36.5932V32.6548H20.8319V36.649C20.841 37.5902 20.0786 38.3891 19.0557 38.5111L17.9329 38.6508L18.4228 39.6843C19.904 42.7764 23.2572 44.7698 26.9564 44.7586Z" fill="#FEDAC6"/>
<path d="M33.203 37.2265C33.1214 37.0301 33.0795 36.8215 33.0806 36.6121V32.6552H20.8316V36.6493C20.8326 36.8589 20.7907 37.0673 20.7091 37.2638C24.6431 39.0672 29.2823 39.0532 33.203 37.2265Z" fill="#F5C4B0"/>
<path d="M9.60376 39.7402C7.16315 40.5269 5.52793 42.6292 5.52075 44.9913V55H9.60376V39.7402Z" fill="#F5AD76"/>
<path d="M38.1846 16.8271H37.1638V22.4134H38.1846C39.8759 22.4134 41.2468 21.163 41.2468 19.6203C41.2468 18.0776 39.8759 16.8271 38.1846 16.8271Z" fill="#FEDAC6"/>
<path d="M12.6659 19.6203C12.6659 21.163 14.0368 22.4134 15.7282 22.4134H16.7489V16.8271H15.7282C14.0368 16.8271 12.6659 18.0776 12.6659 19.6203Z" fill="#F5C4B0"/>
<path d="M38.1844 25.9425C38.1977 27.3111 37.6607 28.6359 36.6737 29.6666L32.2641 34.2194C31.4903 35.0229 30.3747 35.4847 29.2018 35.4856H24.731C23.5581 35.4847 22.4425 35.0229 21.6687 34.2194L17.2591 29.6201C16.272 28.5894 15.7351 27.2646 15.7484 25.8959V13.1034C15.7484 13.1034 21.8729 13.1034 24.9352 12.1723L34.122 9.37921L38.205 15.8965L38.1844 25.9425Z" fill="#FEDAC6"/>
<path d="M19.8113 12.9445C17.6166 13.1028 15.7283 13.1028 15.7283 13.1028V25.9418C15.715 27.3105 16.2519 28.6353 17.2389 29.666L19.8112 32.2916V12.9445H19.8113Z" fill="#F5C4B0"/>
<path d="M15.7284 15.8962H24.9152V18.6893C24.9152 20.232 23.5442 21.4825 21.8529 21.4825H18.7907C17.0993 21.4825 15.7284 20.232 15.7284 18.6893V15.8962Z" fill="#EBEBEB"/>
<path d="M28.9978 15.8962H38.1846V18.6893C38.1846 20.232 36.8137 21.4825 35.1223 21.4825H32.0601C30.3687 21.4825 28.9978 20.232 28.9978 18.6893V15.8962Z" fill="#EBEBEB"/>
<path d="M6.54163 55.0002H4.50012V45.0287C4.49707 41.745 7.18974 38.9612 10.7634 38.5561L18.9192 37.5516C19.4337 37.4911 19.8154 37.0907 19.8114 36.6206V33.5862H21.8529V36.6121C21.8662 38.0142 20.7209 39.2153 19.1877 39.3969L11.0259 40.4024C8.46174 40.6938 6.53869 42.6806 6.54069 45.0278V55.0002H6.54163Z" fill="black"/>
<path d="M49.4128 55.0002H47.3713V45.0287C47.3733 42.6816 45.4503 40.6938 42.8973 40.4033L34.7201 39.3969C33.1921 39.2153 32.0468 38.0142 32.0601 36.6037V33.5862H34.1016V36.6121C34.0965 37.0906 34.4782 37.49 34.9896 37.5515L43.1596 38.557C46.7231 38.962 49.4158 41.7449 49.4127 45.0296V55.0002H49.4128Z" fill="black"/>
<path d="M38.1846 23.3445H37.1638V21.4825H38.1846C39.3105 21.4825 40.2261 20.6473 40.2261 19.6204C40.2261 18.5934 39.3105 17.7583 38.1846 17.7583H37.1638V15.8962H38.1846C40.4364 15.8962 42.2676 17.5664 42.2676 19.6204C42.2676 21.6743 40.4363 23.3445 38.1846 23.3445Z" fill="black"/>
<path d="M16.7491 23.3445H15.7284C13.4766 23.3445 11.6454 21.6743 11.6454 19.6204C11.6454 17.5664 13.4766 15.8962 15.7284 15.8962H16.7491V17.7583H15.7284C14.6025 17.7583 13.6869 18.5934 13.6869 19.6204C13.6869 20.6473 14.6025 21.4825 15.7284 21.4825H16.7491V23.3445Z" fill="black"/>
<path d="M26.9614 45.6899C26.9573 45.6899 26.9533 45.6899 26.9503 45.6899C22.8244 45.6899 19.1099 43.4554 17.4848 39.9957L16.8315 38.6094L18.7077 37.8748L19.361 39.2621C20.6645 42.0357 23.643 43.8279 26.9512 43.8279C26.9543 43.8279 26.9573 43.8279 26.9604 43.8279C30.2686 43.8279 33.2482 42.0357 34.5527 39.2621L35.206 37.8748L37.0822 38.6094L36.4289 39.9967C34.8029 43.4554 31.0863 45.6899 26.9614 45.6899Z" fill="black"/>
<path d="M27.9772 24.2754H23.8942C23.5798 24.2754 23.2828 24.1432 23.0888 23.917C22.8959 23.6907 22.8274 23.3956 22.904 23.1181L24.9455 15.707L26.9248 16.1604L25.2028 22.4132H27.9772V24.2754Z" fill="black"/>
<path d="M25.6929 28H23.8943V26.1379H25.6908C27.0259 26.1351 28.3672 25.8465 29.5656 25.3037L30.4731 26.9721C28.995 27.6406 27.3424 27.9962 25.6929 28Z" fill="black"/>
<path d="M29.2042 36.4168H24.7313C23.2635 36.4149 21.8691 35.8376 20.9025 34.8339L16.4919 30.2336C15.3395 29.0289 14.7137 27.4861 14.729 25.8885V13.1035C14.729 12.5896 15.1864 12.1725 15.7498 12.1725C15.809 12.1725 21.7456 12.1613 24.6139 11.2889L33.8007 8.4958C34.2631 8.35707 34.7684 8.53206 35.0102 8.91755L39.0932 15.4349C39.182 15.5754 39.228 15.7356 39.228 15.8986L39.2056 25.9389C39.2209 27.5347 38.5942 29.0756 37.4417 30.2785L33.0289 34.836C32.0644 35.8376 30.669 36.4148 29.2042 36.4168ZM16.7695 14.0205V25.8959C16.7583 27.0457 17.2053 28.1481 18.0281 29.0083L22.4367 33.6058C23.0154 34.2073 23.8524 34.5536 24.7324 34.5546H29.2022C30.079 34.5536 30.9171 34.2073 31.4979 33.604L35.9085 29.0493C36.7281 28.1927 37.1752 27.0904 37.163 25.9498C37.163 25.9461 37.163 25.9433 37.163 25.9397L37.1835 16.1423L33.6497 10.503L25.258 13.055C22.8185 13.7971 18.6844 13.9767 16.7695 14.0205Z" fill="black"/>
<path d="M12.7138 18.0421L10.856 12.7444C10.0956 10.2222 11.1918 7.59106 13.4773 6.16659L11.6961 1.29443C11.592 1.01044 11.645 0.698554 11.837 0.455547C12.0299 0.211574 12.3382 0.0682373 12.6659 0.0682373H29.6919C33.8484 0.0719924 37.5405 2.41076 39.0103 5.92638C41.603 7.14227 43.0147 9.81063 42.4319 12.4399L41.2274 17.9405L39.2258 17.5755L40.4303 12.073C40.8365 10.2398 39.8403 8.38145 38.006 7.54996L37.7151 7.41221C37.4804 7.30052 37.3017 7.11051 37.218 6.88059C36.134 3.92267 33.1095 1.93301 29.6911 1.93022H14.0816L15.676 6.29148C15.8373 6.73189 15.6178 7.21233 15.1626 7.41897C13.2293 8.29787 12.2413 10.3136 12.8139 12.2139L14.6594 17.4743L12.7138 18.0421Z" fill="black"/>
<path d="M21.8523 22.4136H18.79C16.5382 22.4136 14.707 20.7434 14.707 18.6895V15.8963C14.707 15.3824 15.1644 14.9653 15.7278 14.9653H24.9146C25.478 14.9653 25.9353 15.3824 25.9353 15.8963V18.6895C25.9353 20.7434 24.1041 22.4136 21.8523 22.4136ZM16.7485 16.8274V18.6895C16.7485 19.7164 17.6641 20.5515 18.79 20.5515H21.8523C22.9782 20.5515 23.8938 19.7164 23.8938 18.6895V16.8274H16.7485Z" fill="black"/>
<path d="M35.1226 22.4136H32.0603C29.8085 22.4136 27.9773 20.7434 27.9773 18.6895V15.8963C27.9773 15.3824 28.4346 14.9653 28.998 14.9653H38.1848C38.7493 14.9653 39.2056 15.3824 39.2056 15.8963V18.6895C39.2056 20.7434 37.3743 22.4136 35.1226 22.4136ZM30.0188 16.8274V18.6895C30.0188 19.7164 30.9344 20.5515 32.0603 20.5515H35.1226C36.2485 20.5515 37.1641 19.7164 37.1641 18.6895V16.8274H30.0188Z" fill="black"/>
<path d="M28.9978 14.9653H24.9148V16.8274H28.9978V14.9653Z" fill="black"/>
</g>
<defs>
<filter id="filter0_d" x="0.500122" y="0.0682373" width="52.9127" height="62.9319" filterUnits="userSpaceOnUse" color-interpolation-filters="sRGB">
<feFlood flood-opacity="0" result="BackgroundImageFix"/>
<feColorMatrix in="SourceAlpha" type="matrix" values="0 0 0 0 0 0 0 0 0 0 0 0 0 0 0 0 0 0 127 0"/>
<feOffset dy="4"/>
<feGaussianBlur stdDeviation="2"/>
<feColorMatrix type="matrix" values="0 0 0 0 0 0 0 0 0 0 0 0 0 0 0 0 0 0 0.25 0"/>
<feBlend mode="normal" in2="BackgroundImageFix" result="effect1_dropShadow"/>
<feBlend mode="normal" in="SourceGraphic" in2="effect1_dropShadow" result="shape"/>
</filter>
</defs>
</svg>
