<svg width="163" height="54" viewBox="0 0 163 54" fill="none" xmlns="http://www.w3.org/2000/svg">
<path d="M51.1786 35.2459C48.1907 35.2459 45.8071 34.7546 44.0278 33.772C42.2484 32.7466 40.9559 30.9737 40.1502 28.4531C39.3781 25.8897 38.992 22.3224 38.992 17.7511C38.992 13.0944 39.3613 9.48435 40.0998 6.92101C40.8384 4.35768 42.0806 2.56334 43.8263 1.538C45.5721 0.512667 47.9389 0 50.9268 0C53.5789 0 55.7108 0.341778 57.3222 1.02533C58.9672 1.70889 60.1422 2.90512 60.8473 4.61401C61.5858 6.3229 61.9551 8.73671 61.9551 11.8554C61.9551 15.3587 61.1662 17.7725 59.5883 19.0969C58.0104 20.4213 55.8786 21.0835 53.1929 21.0835H46.3946C46.4281 22.8351 46.6296 24.2235 46.9989 25.2489C47.3682 26.2742 48.0228 27.0219 48.9628 27.4918C49.9364 27.9617 51.3296 28.1967 53.1425 28.1967H61.0487V33.772C59.7394 34.1138 58.2958 34.4555 56.7179 34.7973C55.1736 35.0964 53.3272 35.2459 51.1786 35.2459ZM46.2939 15.4441H52.4375C53.4447 15.4441 54.1832 15.1878 54.6532 14.6751C55.1233 14.1197 55.3583 13.2012 55.3583 11.9195C55.3583 10.0397 55.0058 8.73671 54.3007 8.01043C53.6293 7.24143 52.5046 6.85693 50.9268 6.85693C49.2146 6.85693 48.006 7.45504 47.301 8.65127C46.6296 9.80477 46.2939 12.069 46.2939 15.4441Z" fill="url(#paint0_linear)"/>
<path d="M63.4446 34.9255L72.6097 17.2384L63.4446 0.512669H70.9479L76.9405 11.4069L82.2784 0.512669H89.8321L80.667 18.2638L89.8321 34.9255H82.2784L76.3362 24.0954L70.9983 34.9255H63.4446Z" fill="url(#paint1_linear)"/>
<path d="M102.962 35.2459C99.9746 35.2459 97.591 34.7546 95.8117 33.772C94.0324 32.7466 92.7399 30.9737 91.9341 28.4531C91.162 25.8897 90.7759 22.3224 90.7759 17.7511C90.7759 13.0944 91.1452 9.48435 91.8838 6.92101C92.6224 4.35768 93.8645 2.56334 95.6103 1.538C97.356 0.512667 99.7228 0 102.711 0C105.363 0 107.495 0.341778 109.106 1.02533C110.751 1.70889 111.926 2.90512 112.631 4.61401C113.37 6.3229 113.739 8.73671 113.739 11.8554C113.739 15.3587 112.95 17.7725 111.372 19.0969C109.794 20.4213 107.663 21.0835 104.977 21.0835H98.1785C98.2121 22.8351 98.4135 24.2235 98.7828 25.2489C99.1521 26.2742 99.8067 27.0219 100.747 27.4918C101.72 27.9617 103.114 28.1967 104.926 28.1967H112.833V33.772C111.523 34.1138 110.08 34.4555 108.502 34.7973C106.958 35.0964 105.111 35.2459 102.962 35.2459ZM98.0778 15.4441H104.221C105.229 15.4441 105.967 15.1878 106.437 14.6751C106.907 14.1197 107.142 13.2012 107.142 11.9195C107.142 10.0397 106.79 8.73671 106.085 8.01043C105.413 7.24143 104.289 6.85693 102.711 6.85693C100.999 6.85693 99.79 7.45504 99.0849 8.65127C98.4135 9.80477 98.0778 12.069 98.0778 15.4441Z" fill="url(#paint2_linear)"/>
<path d="M130.01 35.2459C127.022 35.2459 124.639 34.7546 122.859 33.772C121.08 32.7466 119.788 30.9737 118.982 28.4531C118.21 25.8897 117.824 22.3224 117.824 17.7511C117.824 13.0944 118.193 9.48435 118.931 6.92101C119.67 4.35768 120.912 2.56334 122.658 1.538C124.404 0.512667 126.77 0 129.758 0C132.411 0 134.542 0.341778 136.154 1.02533C137.799 1.70889 138.974 2.90512 139.679 4.61401C140.417 6.3229 140.787 8.73671 140.787 11.8554C140.787 15.3587 139.998 17.7725 138.42 19.0969C136.842 20.4213 134.71 21.0835 132.024 21.0835H125.226C125.26 22.8351 125.461 24.2235 125.83 25.2489C126.2 26.2742 126.854 27.0219 127.794 27.4918C128.768 27.9617 130.161 28.1967 131.974 28.1967H139.88V33.772C138.571 34.1138 137.127 34.4555 135.549 34.7973C134.005 35.0964 132.159 35.2459 130.01 35.2459ZM125.125 15.4441H131.269C132.276 15.4441 133.015 15.1878 133.485 14.6751C133.955 14.1197 134.19 13.2012 134.19 11.9195C134.19 10.0397 133.837 8.73671 133.132 8.01043C132.461 7.24143 131.336 6.85693 129.758 6.85693C128.046 6.85693 126.838 7.45504 126.133 8.65127C125.461 9.80477 125.125 12.069 125.125 15.4441Z" fill="url(#paint3_linear)"/>
<path d="M145.677 34.9255V0.512669H151.418L153.13 5.76751C154.103 4.18679 155.195 2.84103 156.403 1.73025C157.645 0.619473 159.106 0.0640826 160.784 0.0640826C161.154 0.0640826 161.523 0.0854435 161.892 0.128165C162.295 0.170887 162.664 0.256332 163 0.3845V10.1252C162.463 10.0397 161.909 9.97566 161.338 9.93293C160.801 9.84749 160.297 9.80477 159.827 9.80477C158.35 9.80477 157.091 10.1252 156.051 10.766C155.01 11.3641 154.036 12.2827 153.13 13.5216V34.9255H145.677Z" fill="url(#paint4_linear)"/>
<path d="M13.307 40.729V53.8953H5.22183V35.6247V16.2788L13.307 13.6348V20.8708V35.6247V40.729Z" fill="url(#paint5_linear)"/>
<path d="M30.4506 13.501C23.0501 6.54292 3.73791 5.99989 0.0305151 19.3925C-0.850447 2.86767 17.5395 -4.79732 29.7935 3.65483C30.8696 6.06894 30.4506 13.501 30.4506 13.501Z" fill="url(#paint6_linear)"/>
<path d="M5.21515 21.9349C12.6157 28.8931 31.9279 29.4361 35.6353 16.0435C36.5162 32.5683 18.1263 40.2333 5.87226 31.7811C4.79621 29.367 5.21515 21.9349 5.21515 21.9349Z" fill="url(#paint7_linear)"/>
<defs>
<linearGradient id="paint0_linear" x1="100.996" y1="0" x2="100.996" y2="35.2459" gradientUnits="userSpaceOnUse">
<stop stop-color="#FE8F28"/>
<stop offset="1" stop-color="#FC541F"/>
</linearGradient>
<linearGradient id="paint1_linear" x1="100.996" y1="0" x2="100.996" y2="35.2459" gradientUnits="userSpaceOnUse">
<stop stop-color="#FE8F28"/>
<stop offset="1" stop-color="#FC541F"/>
</linearGradient>
<linearGradient id="paint2_linear" x1="100.996" y1="0" x2="100.996" y2="35.2459" gradientUnits="userSpaceOnUse">
<stop stop-color="#FE8F28"/>
<stop offset="1" stop-color="#FC541F"/>
</linearGradient>
<linearGradient id="paint3_linear" x1="100.996" y1="0" x2="100.996" y2="35.2459" gradientUnits="userSpaceOnUse">
<stop stop-color="#FE8F28"/>
<stop offset="1" stop-color="#FC541F"/>
</linearGradient>
<linearGradient id="paint4_linear" x1="100.996" y1="0" x2="100.996" y2="35.2459" gradientUnits="userSpaceOnUse">
<stop stop-color="#FE8F28"/>
<stop offset="1" stop-color="#FC541F"/>
</linearGradient>
<linearGradient id="paint5_linear" x1="9.26444" y1="13.6348" x2="9.26444" y2="53.8953" gradientUnits="userSpaceOnUse">
<stop stop-color="#FE8F28"/>
<stop offset="1" stop-color="#FC541F"/>
</linearGradient>
<linearGradient id="paint6_linear" x1="15.2655" y1="0.186462" x2="15.2655" y2="19.3925" gradientUnits="userSpaceOnUse">
<stop stop-color="#FE8F28"/>
<stop offset="1" stop-color="#FC541F"/>
</linearGradient>
<linearGradient id="paint7_linear" x1="12.5598" y1="35.7155" x2="26.8469" y2="10.9695" gradientUnits="userSpaceOnUse">
<stop stop-color="#FE8F28"/>
<stop offset="1" stop-color="#FC541F"/>
</linearGradient>
</defs>
</svg>
