<svg width="1920" height="1080" viewBox="0 0 1920 1080" fill="none" xmlns="http://www.w3.org/2000/svg">
<mask id="mask0" mask-type="alpha" maskUnits="userSpaceOnUse" x="0" y="0" width="1920" height="1080">
<path d="M0 0H1920V1080H0V0Z" fill="#FFD9C2"/>
</mask>
<g mask="url(#mask0)">
<path d="M1979.5 1307C1700.07 1306.97 1501.73 1284.24 1314.14 1262.74C967.802 1223.04 658.124 1187.55 -57.5 1306.92M1979.5 498.436C1700.07 498.42 1501.73 484.982 1314.14 472.273C967.802 448.81 658.124 427.829 -57.5 498.386M1979.5 966.052C1700.13 966.036 1501.8 952.6 1314.22 939.892C967.858 916.428 658.123 895.446 -57.5 966V498.889C658.124 428.329 967.745 449.307 1314.06 472.771C1501.66 485.48 1700.01 498.92 1979.5 498.936V966.052ZM1979.5 497.936C1700.13 497.92 1501.8 484.484 1314.22 471.776C967.858 448.312 658.123 427.329 -57.5 497.884V25.5H1979.5V497.936Z" stroke="url(#paint0_linear)"/>
<path d="M-27.5 -146.5H1938.5V706.654C1668.87 706.638 1477.46 694.45 1296.41 682.922C962.121 661.636 663.18 642.602 -27.5 706.605V-146.5Z" stroke="#FFCFA8"/>
</g>
<defs>
<linearGradient id="paint0_linear" x1="961" y1="25" x2="961" y2="1307" gradientUnits="userSpaceOnUse">
<stop stop-color="#FFCFA8"/>
<stop offset="0.863495" stop-color="#FFCFA8" stop-opacity="0.48"/>
</linearGradient>
</defs>
</svg>
