<svg width="26" height="26" viewBox="0 0 26 26" fill="none" xmlns="http://www.w3.org/2000/svg">
<g clip-path="url(#clip0)">
<path d="M13 26C20.1678 26 26 20.1684 26 13C26 11.7627 25.8273 10.5435 25.4853 9.37575C25.3168 8.80155 24.7172 8.47174 24.1415 8.64022C23.5667 8.80817 23.238 9.40987 23.4059 9.98407C23.6892 10.9542 23.8333 11.9693 23.8333 13C23.8333 18.9734 18.9734 23.8333 13 23.8333C7.02659 23.8333 2.16667 18.9734 2.16667 13C2.16667 7.02659 7.02659 2.16667 13 2.16667C15.1709 2.16667 17.2595 2.80143 19.0401 4.00193C19.5357 4.33651 20.2096 4.20506 20.5437 3.70941C20.878 3.21324 20.7476 2.53986 20.2514 2.20555C18.1117 0.762777 15.6044 0 13 0C5.83217 0 0 5.83164 0 13C0 20.1684 5.83217 26 13 26V26Z" fill="#F7941E"/>
<path d="M24.1492 2.48125L12.9985 13.6314L9.43112 10.0646C9.00794 9.64167 8.32239 9.64167 7.89922 10.0646C7.4763 10.4878 7.4763 11.1733 7.89922 11.5965L12.2325 15.9298C12.4444 16.1417 12.7211 16.2472 12.9985 16.2472C13.2759 16.2472 13.5526 16.1417 13.7645 15.9298L25.6811 4.01315C26.104 3.58997 26.104 2.90442 25.6811 2.48125C25.2579 2.05833 24.5724 2.05833 24.1492 2.48125Z" fill="#F7941E"/>
</g>
<defs>
<clipPath id="clip0">
<rect width="26" height="26" fill="white"/>
</clipPath>
</defs>
</svg>
