<svg width="26" height="26" viewBox="0 0 26 26" fill="none" xmlns="http://www.w3.org/2000/svg">
<g clip-path="url(#clip0)">
<path d="M25.0016 8.02812C24.772 7.47542 24.1414 7.21233 23.5871 7.44185C23.0343 7.6703 22.7723 8.30366 23.0013 8.85637C24.1078 11.5284 24.1078 14.4711 23.0013 17.1432C21.8948 19.8152 19.8134 21.8956 17.1419 23.0026C14.4823 24.1042 11.5531 24.1113 8.89459 23.0221C7.90178 22.6139 6.99179 22.0699 6.18086 21.4143L22.2153 5.37503C22.6381 4.95224 22.6381 4.26691 22.2153 3.84358C21.7925 3.42134 21.1061 3.4208 20.6844 3.84358L4.64184 19.891C3.96842 19.0725 3.41354 18.1495 2.99671 17.1432C1.89022 14.4711 1.89022 11.5284 2.99671 8.85637C4.10321 6.18433 6.18465 4.10397 8.85616 2.99693C11.5412 1.88503 14.4964 1.89044 17.1771 3.01209C17.7298 3.24378 18.3631 2.98286 18.5937 2.43178C18.8249 1.88015 18.5645 1.24571 18.0134 1.0151C14.7952 -0.332293 11.2489 -0.338248 8.02737 0.996691C4.82102 2.32459 2.32383 4.82178 0.995927 8.02758C-0.331976 11.2339 -0.331976 14.7651 0.995927 17.9714C2.32924 21.1913 4.84214 23.6961 8.0723 25.0245C9.65896 25.6746 11.3257 26 12.9931 26C14.6793 26 16.3656 25.6676 17.9707 25.0028C21.177 23.6749 23.6737 21.1778 25.0016 17.972C26.3295 14.7656 26.3295 11.2345 25.0016 8.02812Z" fill="#F7941E"/>
</g>
<defs>
<clipPath id="clip0">
<rect width="26" height="26" fill="white"/>
</clipPath>
</defs>
</svg>
