<svg width="25" height="25" viewBox="0 0 25 25" fill="none" xmlns="http://www.w3.org/2000/svg">
<g clip-path="url(#clip0)">
<path d="M24.6673 9.76672C24.6673 10.1214 24.4241 10.4423 24.0638 10.5263C23.644 10.6242 23.2242 10.3632 23.1263 9.9433C23.1199 9.91578 23.1132 9.88855 23.1062 9.86118C23.0002 9.44309 23.2526 9.01846 23.6704 8.91224C24.1637 8.78685 24.6673 9.1542 24.6673 9.76672V9.76672Z" fill="#B4B8D7"/>
<path d="M6.01072 23.1664C0.11183 19.5808 -1.76095 11.9051 1.82512 6.00535C3.88516 2.61621 7.33436 0.51367 11.0788 0.0831409C16.4958 -0.540306 21.4188 2.40153 23.6663 6.89578C23.8591 7.28138 23.7029 7.75035 23.3173 7.94317C22.9317 8.13599 22.4627 7.97976 22.2699 7.59412C18.4255 -0.0931893 7.60827 -0.502932 3.15934 6.8163C0.0291302 11.9659 1.67211 18.7021 6.82172 21.8323C13.9426 26.1607 23.4274 21.2658 23.4274 12.2933C23.4274 11.8687 23.7677 11.5207 24.194 11.513C24.6251 11.5053 24.9808 11.8485 24.9886 12.2795C25.1641 22.092 14.4125 28.2734 6.01072 23.1664V23.1664Z" fill="#B4B8D7"/>
<path d="M14.6842 7.64739C14.3793 7.95223 14.3793 8.44653 14.6842 8.75137L14.9129 8.98005H11.7233C8.54505 8.98005 7.55279 10.8915 7.5121 10.9729C7.53064 10.9822 7.43359 11.0888 7.43359 11.3261C7.43359 12.1647 8.58398 12.411 8.92678 11.644C9.06379 11.4368 9.76891 10.5414 11.7233 10.5414H14.9129L14.6842 10.7701C14.3793 11.0749 14.3793 11.5692 14.6842 11.8741C14.989 12.179 15.4833 12.179 15.7882 11.8741L17.3493 10.313C17.5984 10.0641 17.6518 9.6701 17.4672 9.3613C17.3945 9.23957 17.4768 9.33617 15.7881 7.64748C15.4833 7.34254 14.989 7.34254 14.6842 7.64739V7.64739Z" fill="#B4B8D7"/>
<path d="M16.1002 13.3167C16.0937 13.3134 16.0929 13.3168 16.1021 13.3001C16.0762 13.3468 15.4433 14.4438 13.2802 14.4438H10.0906C10.3326 14.2019 10.548 14.0373 10.548 13.6632C10.548 12.974 9.70846 12.618 9.21533 13.1112C7.50302 14.8235 7.63822 14.6859 7.60226 14.7297C7.37309 15.0087 7.36802 15.4066 7.58177 15.6918C7.63534 15.7631 7.4775 15.5999 9.21533 17.3377C9.52017 17.6426 10.0145 17.6426 10.3193 17.3377C10.6242 17.0329 10.6242 16.5386 10.3193 16.2338L10.0906 16.0051H13.2802C16.0233 16.0051 17.1379 14.5813 17.4179 14.1391C17.8058 13.6296 17.445 12.8865 16.7971 12.8865C16.4921 12.8866 16.2287 13.0618 16.1002 13.3167V13.3167Z" fill="#B4B8D7"/>
</g>
<defs>
<clipPath id="clip0">
<rect width="25" height="25" fill="white" transform="translate(0 25) rotate(-90)"/>
</clipPath>
</defs>
</svg>
