<svg width="25" height="25" viewBox="0 0 25 25" fill="none" xmlns="http://www.w3.org/2000/svg">
<g clip-path="url(#clip0)">
<path d="M22.1351 25.001H2.86443C1.28421 25.001 0 23.7166 0 22.1365V7.0324C0 5.45217 1.28421 4.16797 2.86443 4.16797H6.51029C6.94154 4.16797 7.29153 4.51796 7.29153 4.94921C7.29153 5.38046 6.94154 5.73045 6.51029 5.73045H2.86443C2.1467 5.73045 1.56248 6.31467 1.56248 7.0324V22.1365C1.56248 22.8541 2.1467 23.4385 2.86443 23.4385H22.1351C22.8529 23.4385 23.4373 22.8541 23.4373 22.1365V13.2823C23.4373 12.8511 23.7873 12.5011 24.2185 12.5011C24.6498 12.5011 24.9998 12.8511 24.9998 13.2823V22.1365C24.9998 23.7166 23.7154 25.001 22.1351 25.001V25.001Z" fill="#B4B8D7"/>
<path d="M7.0301 16.6533C6.97288 16.6533 6.91547 16.647 6.85825 16.6323C6.5052 16.5501 6.25 16.248 6.25 15.8856V14.3231C6.25 8.72317 10.8062 4.16694 16.4062 4.16694H16.6665V0.781434C16.6665 0.462719 16.8603 0.176239 17.1561 0.0564583C17.4508 -0.0621777 17.7893 0.00953791 18.0102 0.239753L24.781 7.27093C25.0727 7.57305 25.0727 8.05218 24.781 8.3543L18.0102 15.3855C17.7893 15.6157 17.4487 15.6866 17.1561 15.5688C16.8603 15.449 16.6665 15.1625 16.6665 14.8438V11.4585H15.429C12.152 11.4585 9.20712 13.2792 7.74268 16.2094C7.60821 16.4803 7.32592 16.6533 7.0301 16.6533V16.6533ZM16.4062 5.72943C12.0311 5.72943 8.40833 9.01576 7.8781 13.25C9.77169 11.1377 12.4874 9.89599 15.429 9.89599H17.4477C17.879 9.89599 18.229 10.246 18.229 10.6772V12.9063L23.1341 7.81261L18.229 2.7189V4.94819C18.229 5.37943 17.879 5.72943 17.4477 5.72943H16.4062Z" fill="#B4B8D7"/>
</g>
<defs>
<clipPath id="clip0">
<rect width="25" height="25" fill="white"/>
</clipPath>
</defs>
</svg>
