<svg width="24" height="24" viewBox="0 0 24 24" fill="none" xmlns="http://www.w3.org/2000/svg">
<path d="M13.1545 20.7832H22.6467" stroke="#4C5779" stroke-width="0.75"/>
<path d="M12.8075 13.8416V21.8243C12.6223 22.9349 13.502 23.0584 13.965 22.9813H22.0681C22.9015 22.9813 23.0327 22.21 22.9941 21.8243V13.8416C22.9941 13.0085 22.3768 12.8003 22.0681 12.8003H13.965C12.9464 12.7078 12.7689 13.4559 12.8075 13.8416Z" stroke="#4C5779" stroke-width="0.75"/>
<path d="M15.354 15.3459V11.3282C15.354 8.72859 19.7683 7.42881 20.4474 11.3283V15.3459" stroke="#4C5779" stroke-width="0.75"/>
<path d="M19.3188 14.6514C18.9716 16.5024 21.8655 16.7338 21.634 14.6514" stroke="#4C5779" stroke-width="0.75"/>
<path d="M14.2255 14.6514C13.8783 16.5024 16.7722 16.7338 16.5407 14.6514" stroke="#4C5779" stroke-width="0.75"/>
<path d="M17.5534 3.08252C22.531 3.08252 23.9201 8.28866 22.2994 10.8339C22.2994 6.66897 19.1354 5.62774 17.5534 5.62774V7.47882L13.9648 4.47082L17.5534 1.23145V3.08252Z" stroke="#4C5779" stroke-width="0.75"/>
<path d="M6.62121 21.0146C1.6436 21.0146 0.254504 15.8085 1.87512 13.2633C1.87512 17.4282 5.03918 18.4694 6.62121 18.4694V16.6183L10.2097 19.6263L6.62121 22.8657V21.0146Z" stroke="#4C5779" stroke-width="0.75"/>
<path d="M4.93594 9.09864C4.78159 10.2941 5.05158 12.8008 8.17717 13.4949C9.33464 13.6106 11.1174 13.4487 12.2287 11.8752C12.5759 11.3835 13.2705 10.0242 12.5759 7.94172C12.3058 7.13188 10.9553 5.53533 9.10319 5.62788" stroke="#4C5779" stroke-width="0.75"/>
<path d="M10.3764 8.86684V8.17268C10.415 7.86417 10.1912 7.29342 8.98728 7.47853C8.52397 7.47853 7.82942 7.36279 7.71366 8.17268C7.71366 8.17268 7.5979 8.86684 7.71366 9.56099C7.73295 9.67666 8.18188 9.71489 8.75571 9.67666C10.1448 9.79235 10.3764 9.56097 10.3764 10.7179C10.3764 11.2963 10.6078 11.7591 8.98728 11.7591C8.29263 11.7591 7.48236 11.9905 7.48242 10.7179V10.3708" stroke="#4C5779" stroke-width="0.75"/>
<path d="M8.98706 6.78467V12.5693" stroke="#4C5779" stroke-width="0.75"/>
<path d="M8.9596 5.16492C8.9596 7.25783 7.26193 8.95483 5.1673 8.95483C3.07267 8.95483 1.375 7.25783 1.375 5.16492C1.375 3.07201 3.07267 1.375 5.1673 1.375C7.26193 1.375 8.9596 3.07201 8.9596 5.16492Z" stroke="#4C5779" stroke-width="0.75"/>
<path d="M6.67252 4.47133V3.77717C6.71111 3.46866 6.48731 2.89791 5.28342 3.08302C4.82011 3.08302 4.12556 2.96728 4.0098 3.77717C4.0098 3.77717 3.89404 4.47133 4.0098 5.16549C4.02909 5.28115 4.47803 5.31939 5.05185 5.28115C6.44091 5.39684 6.67252 5.16546 6.67252 6.32238C6.67252 6.90084 6.90394 7.36361 5.28342 7.36361C4.58877 7.36361 3.7785 7.59502 3.77856 6.32238V5.9753" stroke="#4C5779" stroke-width="0.75"/>
<path d="M5.2832 2.38867V8.17328" stroke="#4C5779" stroke-width="0.75"/>
</svg>
