<svg width="25" height="25" viewBox="0 0 25 25" fill="none" xmlns="http://www.w3.org/2000/svg">
<g clip-path="url(#clip0)">
<path d="M23.8941 10.5543C23.5394 10.5543 23.2185 10.3111 23.1343 9.95093C23.1278 9.92354 23.1213 9.8965 23.1144 9.86926C23.0075 9.45134 23.2597 9.02595 23.6776 8.91905C24.0958 8.81224 24.5209 9.06437 24.6278 9.48229C24.6374 9.51993 24.6465 9.55727 24.6553 9.5951C24.7702 10.086 24.3969 10.5543 23.8941 10.5543V10.5543Z" fill="#B4B8D7"/>
<path d="M12.4906 25C6.96928 25 1.77931 21.2812 0.360121 15.4624C-0.954944 10.0708 1.43486 4.69065 5.8464 1.92042C12.1651 -2.04743 20.4164 0.38519 23.675 6.90091C23.8679 7.28676 23.7115 7.75593 23.3257 7.94885C22.94 8.14187 22.4707 7.98542 22.2778 7.59967C18.484 0.0134533 7.66076 -0.587672 3.15715 6.82139C0.0253386 11.9738 1.66918 18.7135 6.82151 21.8453C10.404 24.0229 14.9866 23.946 18.4962 21.6494C21.5723 19.6376 23.5045 16.124 23.4361 12.3156C23.4284 11.8843 23.7717 11.5284 24.203 11.5206C24.6326 11.5146 24.9902 11.8562 24.998 12.2875C25.1225 19.2145 19.5374 24.9984 12.4906 25Z" fill="#B4B8D7"/>
<path d="M17.403 10.26C17.5525 10.078 17.619 9.82739 17.5556 9.57452C17.4851 9.29368 17.4914 9.35299 15.789 7.65067C15.484 7.34561 14.9895 7.34561 14.6845 7.65067C14.3794 7.95567 14.3794 8.45023 14.6845 8.75523L14.9133 8.98404H9.76934C9.338 8.98404 8.98828 9.33376 8.98828 9.7651C8.98828 10.1964 9.338 10.5462 9.76934 10.5462H14.9133L14.6845 10.775C14.3794 11.08 14.3794 11.5745 14.6845 11.8795C14.9894 12.1845 15.484 12.1846 15.789 11.8795C17.5023 10.1663 17.367 10.3039 17.403 10.26V10.26Z" fill="#B4B8D7"/>
<path d="M15.2324 14.4567H10.0884L10.3172 14.2279C10.6223 13.9229 10.6223 13.4283 10.3172 13.1233C10.0122 12.8183 9.51767 12.8183 9.21266 13.1233C7.50087 14.8351 7.55847 14.7524 7.48124 14.9389C7.40226 15.13 7.40192 15.3448 7.48124 15.5366C7.56525 15.7394 7.56115 15.7006 9.21266 17.3522C9.51762 17.6572 10.0122 17.6572 10.3172 17.3522C10.6223 17.0472 10.6223 16.5526 10.3172 16.2476L10.0884 16.0188H15.2324C15.6638 16.0188 16.0134 15.6691 16.0134 15.2378C16.0134 14.8064 15.6638 14.4567 15.2324 14.4567V14.4567Z" fill="#B4B8D7"/>
</g>
<defs>
<clipPath id="clip0">
<rect width="25" height="25" fill="white"/>
</clipPath>
</defs>
</svg>
